<svg width="490" height="250" viewBox="0 0 490 250" fill="none" xmlns="http://www.w3.org/2000/svg">
<g clip-path="url(#clip0_643_38764)">
<path d="M130.86 7.92C130.86 13.27 126.52 17.61 121.17 17.61C115.82 17.61 111.48 13.27 111.48 7.92C111.48 4.65 113.1 1.76 115.58 0H126.76C129.24 1.76 130.86 4.65 130.86 7.92Z" fill="#6390B5"/>
<path d="M368.36 7.92C368.36 15.95 361.85 22.46 353.82 22.46C345.79 22.46 339.28 15.95 339.28 7.92C339.28 5 340.14 2.28 341.63 0H366.01C367.5 2.28 368.36 5 368.36 7.92Z" fill="#E2E2E3"/>
<path d="M411.98 12.7703C414.658 12.7703 416.83 10.5989 416.83 7.92031C416.83 5.24173 414.658 3.07031 411.98 3.07031C409.301 3.07031 407.13 5.24173 407.13 7.92031C407.13 10.5989 409.301 12.7703 411.98 12.7703Z" fill="#A6BFD5"/>
<path d="M489.53 7.92C489.53 18.63 480.85 27.31 470.14 27.31C459.43 27.31 450.76 18.63 450.76 7.92C450.76 5.1 451.36 2.42 452.45 0H487.84C488.93 2.42 489.53 5.1 489.53 7.92Z" fill="#6390B5"/>
<path d="M63.0102 70.9305C65.6887 70.9305 67.8602 68.7591 67.8602 66.0805C67.8602 63.4019 65.6887 61.2305 63.0102 61.2305C60.3316 61.2305 58.1602 63.4019 58.1602 66.0805C58.1602 68.7591 60.3316 70.9305 63.0102 70.9305Z" fill="#A6BFD5"/>
<path d="M121.17 70.9305C123.849 70.9305 126.02 68.7591 126.02 66.0805C126.02 63.4019 123.849 61.2305 121.17 61.2305C118.492 61.2305 116.32 63.4019 116.32 66.0805C116.32 68.7591 118.492 70.9305 121.17 70.9305Z" fill="#6390B5"/>
<path d="M179.33 70.9305C182.009 70.9305 184.18 68.7591 184.18 66.0805C184.18 63.4019 182.009 61.2305 179.33 61.2305C176.652 61.2305 174.48 63.4019 174.48 66.0805C174.48 68.7591 176.652 70.9305 179.33 70.9305Z" fill="#A6BFD5"/>
<path d="M237.5 75.7696C242.851 75.7696 247.19 71.4313 247.19 66.0797C247.19 60.728 242.851 56.3896 237.5 56.3896C232.148 56.3896 227.81 60.728 227.81 66.0797C227.81 71.4313 232.148 75.7696 237.5 75.7696Z" fill="#6390B5"/>
<path d="M411.98 85.4704C422.689 85.4704 431.37 76.7892 431.37 66.0804C431.37 55.3716 422.689 46.6904 411.98 46.6904C401.271 46.6904 392.59 55.3716 392.59 66.0804C392.59 76.7892 401.271 85.4704 411.98 85.4704Z" fill="#E2E2E3"/>
<path d="M470.14 70.9305C472.819 70.9305 474.99 68.7591 474.99 66.0805C474.99 63.4019 472.819 61.2305 470.14 61.2305C467.461 61.2305 465.29 63.4019 465.29 66.0805C465.29 68.7591 467.461 70.9305 470.14 70.9305Z" fill="#E2E2E3"/>
<path d="M4.85 129.1C7.52858 129.1 9.7 126.929 9.7 124.25C9.7 121.572 7.52858 119.4 4.85 119.4C2.17142 119.4 0 121.572 0 124.25C0 126.929 2.17142 129.1 4.85 129.1Z" fill="#E2E2E3"/>
<path d="M63.0097 138.79C71.0399 138.79 77.5497 132.28 77.5497 124.25C77.5497 116.22 71.0399 109.71 63.0097 109.71C54.9795 109.71 48.4697 116.22 48.4697 124.25C48.4697 132.28 54.9795 138.79 63.0097 138.79Z" fill="#E2E2E3"/>
<path d="M179.33 129.1C182.009 129.1 184.18 126.929 184.18 124.25C184.18 121.572 182.009 119.4 179.33 119.4C176.652 119.4 174.48 121.572 174.48 124.25C174.48 126.929 176.652 129.1 179.33 129.1Z" fill="#A6BFD5"/>
<path d="M237.5 133.94C242.851 133.94 247.19 129.601 247.19 124.25C247.19 118.898 242.851 114.56 237.5 114.56C232.148 114.56 227.81 118.898 227.81 124.25C227.81 129.601 232.148 133.94 237.5 133.94Z" fill="#6390B5"/>
<path d="M353.82 133.94C359.172 133.94 363.51 129.601 363.51 124.25C363.51 118.898 359.172 114.56 353.82 114.56C348.468 114.56 344.13 118.898 344.13 124.25C344.13 129.601 348.468 133.94 353.82 133.94Z" fill="#E2E2E3"/>
<path d="M411.98 143.64C422.689 143.64 431.37 134.959 431.37 124.25C431.37 113.542 422.689 104.86 411.98 104.86C401.271 104.86 392.59 113.542 392.59 124.25C392.59 134.959 401.271 143.64 411.98 143.64Z" fill="#E2E2E3"/>
<path d="M470.14 129.1C472.819 129.1 474.99 126.929 474.99 124.25C474.99 121.572 472.819 119.4 470.14 119.4C467.461 119.4 465.29 121.572 465.29 124.25C465.29 126.929 467.461 129.1 470.14 129.1Z" fill="#6390B5"/>
<path d="M121.17 187.26C123.849 187.26 126.02 185.088 126.02 182.41C126.02 179.731 123.849 177.56 121.17 177.56C118.492 177.56 116.32 179.731 116.32 182.41C116.32 185.088 118.492 187.26 121.17 187.26Z" fill="#E2E2E3"/>
<path d="M237.5 201.8C248.209 201.8 256.89 193.118 256.89 182.41C256.89 171.701 248.209 163.02 237.5 163.02C226.792 163.02 218.11 171.701 218.11 182.41C218.11 193.118 226.792 201.8 237.5 201.8Z" fill="#6390B5"/>
<path d="M295.66 192.1C301.011 192.1 305.35 187.761 305.35 182.41C305.35 177.058 301.011 172.72 295.66 172.72C290.308 172.72 285.97 177.058 285.97 182.41C285.97 187.761 290.308 192.1 295.66 192.1Z" fill="#E2E2E3"/>
<path d="M353.82 192.1C359.172 192.1 363.51 187.761 363.51 182.41C363.51 177.058 359.172 172.72 353.82 172.72C348.468 172.72 344.13 177.058 344.13 182.41C344.13 187.761 348.468 192.1 353.82 192.1Z" fill="#6390B5"/>
<path d="M411.98 201.8C422.689 201.8 431.37 193.118 431.37 182.41C431.37 171.701 422.689 163.02 411.98 163.02C401.271 163.02 392.59 171.701 392.59 182.41C392.59 193.118 401.271 201.8 411.98 201.8Z" fill="#E2E2E3"/>
<path d="M470.14 196.95C478.17 196.95 484.68 190.44 484.68 182.41C484.68 174.38 478.17 167.87 470.14 167.87C462.109 167.87 455.6 174.38 455.6 182.41C455.6 190.44 462.109 196.95 470.14 196.95Z" fill="#E2E2E3"/>
<path d="M179.33 245.42C182.009 245.42 184.18 243.248 184.18 240.57C184.18 237.891 182.009 235.72 179.33 235.72C176.652 235.72 174.48 237.891 174.48 240.57C174.48 243.248 176.652 245.42 179.33 245.42Z" fill="#E2E2E3"/>
<path d="M256.88 240.57C256.88 243.83 256.08 246.9 254.65 249.59H220.34C218.91 246.9 218.11 243.83 218.11 240.57C218.11 229.86 226.79 221.18 237.49 221.18C248.19 221.18 256.88 229.86 256.88 240.57Z" fill="#E2E2E3"/>
<path d="M315.04 240.57C315.04 243.83 314.24 246.9 312.81 249.59H278.5C277.07 246.9 276.27 243.83 276.27 240.57C276.27 229.86 284.95 221.18 295.66 221.18C306.37 221.18 315.04 229.86 315.04 240.57Z" fill="#A6BFD5"/>
<path d="M363.51 240.57C363.51 244.67 360.96 248.18 357.36 249.59H350.28C346.68 248.18 344.13 244.67 344.13 240.57C344.13 235.22 348.47 230.88 353.82 230.88C359.17 230.88 363.51 235.22 363.51 240.57Z" fill="#6390B5"/>
<path d="M484.68 240.57C484.68 243.98 483.51 247.11 481.54 249.59H458.74C456.77 247.11 455.6 243.98 455.6 240.57C455.6 232.54 462.11 226.03 470.14 226.03C478.17 226.03 484.68 232.54 484.68 240.57Z" fill="#E2E2E3"/>
</g>
<defs>
<clipPath id="clip0_643_38764">
<rect width="489.53" height="249.59" fill="white"/>
</clipPath>
</defs>
</svg>
