<?xml version="1.0" encoding="UTF-8"?><svg xmlns="http://www.w3.org/2000/svg" viewBox="0 0 1024 1024"><g id="Background"><rect width="1024" height="1024" style="fill:#e5ebee; stroke-width:0px;"/></g><g id="Visual_Identity"><circle cx="62" cy="62" r="5" style="fill:#003c57; stroke-width:0px;"/><circle cx="122" cy="62" r="5" style="fill:#4c7689; stroke-width:0px;"/><circle cx="182" cy="62" r="5" style="fill:#4c7689; stroke-width:0px;"/><circle cx="242" cy="62" r="5" style="fill:#99b1bc; stroke-width:0px;"/><circle cx="302" cy="62" r="10" style="fill:#4c7689; stroke-width:0px;"/><circle cx="362" cy="62" r="10" style="fill:#99b1bc; stroke-width:0px;"/><circle cx="422" cy="62" r="10" style="fill:#4c7689; stroke-width:0px;"/><circle cx="482" cy="62" r="20" style="fill:#003c57; stroke-width:0px;"/><circle cx="542" cy="62" r="5" style="fill:#003c57; stroke-width:0px;"/><circle cx="602" cy="62" r="5" style="fill:#003c57; stroke-width:0px;"/><circle cx="662" cy="62" r="15" style="fill:#4c7689; stroke-width:0px;"/><circle cx="722" cy="62" r="5" style="fill:#99b1bc; stroke-width:0px;"/><circle cx="782" cy="62" r="10" style="fill:#4c7689; stroke-width:0px;"/><circle cx="842" cy="62" r="10" style="fill:#003c57; stroke-width:0px;"/><circle cx="902" cy="62" r="20" style="fill:#003c57; stroke-width:0px;"/><circle cx="962" cy="62" r="20" style="fill:#003c57; stroke-width:0px;"/><circle cx="62" cy="122" r="5" style="fill:#4c7689; stroke-width:0px;"/><circle cx="122" cy="122" r="15" style="fill:#99b1bc; stroke-width:0px;"/><circle cx="182" cy="122" r="5" style="fill:#4c7689; stroke-width:0px;"/><circle cx="242" cy="122" r="5" style="fill:#003c57; stroke-width:0px;"/><circle cx="302" cy="122" r="10" style="fill:#003c57; stroke-width:0px;"/><circle cx="362" cy="122" r="20" style="fill:#99b1bc; stroke-width:0px;"/><circle cx="422" cy="122" r="10" style="fill:#4c7689; stroke-width:0px;"/><circle cx="482" cy="122" r="20" style="fill:#99b1bc; stroke-width:0px;"/><circle cx="542" cy="122" r="5" style="fill:#003c57; stroke-width:0px;"/><circle cx="602" cy="122" r="15" style="fill:#003c57; stroke-width:0px;"/><circle cx="662" cy="122" r="15" style="fill:#003c57; stroke-width:0px;"/><circle cx="722" cy="122" r="5" style="fill:#99b1bc; stroke-width:0px;"/><circle cx="782" cy="122" r="10" style="fill:#4c7689; stroke-width:0px;"/><circle cx="842" cy="122" r="20" style="fill:#003c57; stroke-width:0px;"/><circle cx="902" cy="122" r="20" style="fill:#4c7689; stroke-width:0px;"/><circle cx="962" cy="122" r="20" style="fill:#003c57; stroke-width:0px;"/><circle cx="62" cy="182" r="15" style="fill:#003c57; stroke-width:0px;"/><circle cx="122" cy="182" r="5" style="fill:#99b1bc; stroke-width:0px;"/><circle cx="182" cy="182" r="5" style="fill:#003c57; stroke-width:0px;"/><circle cx="242" cy="182" r="5" style="fill:#99b1bc; stroke-width:0px;"/><circle cx="302" cy="182" r="20" style="fill:#4c7689; stroke-width:0px;"/><circle cx="362" cy="182" r="10" style="fill:#003c57; stroke-width:0px;"/><circle cx="422" cy="182" r="10" style="fill:#003c57; stroke-width:0px;"/><circle cx="482" cy="182" r="20" style="fill:#003c57; stroke-width:0px;"/><circle cx="542" cy="182" r="15" style="fill:#4c7689; stroke-width:0px;"/><circle cx="602" cy="182" r="5" style="fill:#99b1bc; stroke-width:0px;"/><circle cx="662" cy="182" r="15" style="fill:#4c7689; stroke-width:0px;"/><circle cx="722" cy="182" r="5" style="fill:#003c57; stroke-width:0px;"/><circle cx="782" cy="182" r="20" style="fill:#003c57; stroke-width:0px;"/><circle cx="842" cy="182" r="10" style="fill:#99b1bc; stroke-width:0px;"/><circle cx="902" cy="182" r="20" style="fill:#4c7689; stroke-width:0px;"/><circle cx="962" cy="182" r="20" style="fill:#99b1bc; stroke-width:0px;"/><circle cx="62" cy="242" r="15" style="fill:#003c57; stroke-width:0px;"/><circle cx="122" cy="242" r="15" style="fill:#003c57; stroke-width:0px;"/><circle cx="182" cy="242" r="5" style="fill:#003c57; stroke-width:0px;"/><circle cx="242" cy="242" r="5" style="fill:#99b1bc; stroke-width:0px;"/><circle cx="302" cy="242" r="20" style="fill:#4c7689; stroke-width:0px;"/><circle cx="362" cy="242" r="20" style="fill:#99b1bc; stroke-width:0px;"/><circle cx="422" cy="242" r="10" style="fill:#003c57; stroke-width:0px;"/><circle cx="482" cy="242" r="20" style="fill:#003c57; stroke-width:0px;"/><circle cx="542" cy="242" r="15" style="fill:#003c57; stroke-width:0px;"/><circle cx="602" cy="242" r="15" style="fill:#99b1bc; stroke-width:0px;"/><circle cx="662" cy="242" r="15" style="fill:#4c7689; stroke-width:0px;"/><circle cx="722" cy="242" r="5" style="fill:#99b1bc; stroke-width:0px;"/><circle cx="782" cy="242" r="20" style="fill:#4c7689; stroke-width:0px;"/><circle cx="842" cy="242" r="20" style="fill:#99b1bc; stroke-width:0px;"/><circle cx="902" cy="242" r="20" style="fill:#99b1bc; stroke-width:0px;"/><circle cx="962" cy="242" r="20" style="fill:#003c57; stroke-width:0px;"/><circle cx="62" cy="302" r="10" style="fill:#4c7689; stroke-width:0px;"/><circle cx="122" cy="302" r="10" style="fill:#99b1bc; stroke-width:0px;"/><circle cx="182" cy="302" r="10" style="fill:#99b1bc; stroke-width:0px;"/><circle cx="242" cy="302" r="20" style="fill:#003c57; stroke-width:0px;"/><circle cx="302" cy="302" r="5" style="fill:#003c57; stroke-width:0px;"/><circle cx="362" cy="302" r="5" style="fill:#4c7689; stroke-width:0px;"/><circle cx="422" cy="302" r="15" style="fill:#4c7689; stroke-width:0px;"/><circle cx="482" cy="302" r="5" style="fill:#99b1bc; stroke-width:0px;"/><circle cx="542" cy="302" r="10" style="fill:#4c7689; stroke-width:0px;"/><circle cx="602" cy="302" r="10" style="fill:#99b1bc; stroke-width:0px;"/><circle cx="662" cy="302" r="20" style="fill:#4c7689; stroke-width:0px;"/><circle cx="722" cy="302" r="20" style="fill:#003c57; stroke-width:0px;"/><circle cx="782" cy="302" r="5" style="fill:#003c57; stroke-width:0px;"/><circle cx="842" cy="302" r="15" style="fill:#003c57; stroke-width:0px;"/><circle cx="902" cy="302" r="5" style="fill:#4c7689; stroke-width:0px;"/><circle cx="962" cy="302" r="5" style="fill:#99b1bc; stroke-width:0px;"/><circle cx="62" cy="362" r="10" style="fill:#4c7689; stroke-width:0px;"/><circle cx="122" cy="362" r="20" style="fill:#003c57; stroke-width:0px;"/><circle cx="182" cy="362" r="10" style="fill:#003c57; stroke-width:0px;"/><circle cx="242" cy="362" r="20" style="fill:#003c57; stroke-width:0px;"/><circle cx="302" cy="362" r="5" style="fill:#4c7689; stroke-width:0px;"/><circle cx="362" cy="362" r="15" style="fill:#99b1bc; stroke-width:0px;"/><circle cx="422" cy="362" r="15" style="fill:#4c7689; stroke-width:0px;"/><circle cx="482" cy="362" r="5" style="fill:#003c57; stroke-width:0px;"/><circle cx="542" cy="362" r="10" style="fill:#003c57; stroke-width:0px;"/><circle cx="602" cy="362" r="20" style="fill:#99b1bc; stroke-width:0px;"/><circle cx="662" cy="362" r="20" style="fill:#4c7689; stroke-width:0px;"/><circle cx="722" cy="362" r="20" style="fill:#99b1bc; stroke-width:0px;"/><circle cx="782" cy="362" r="15" style="fill:#003c57; stroke-width:0px;"/><circle cx="842" cy="362" r="5" style="fill:#003c57; stroke-width:0px;"/><circle cx="902" cy="362" r="5" style="fill:#003c57; stroke-width:0px;"/><circle cx="962" cy="362" r="5" style="fill:#99b1bc; stroke-width:0px;"/><circle cx="62" cy="422" r="20" style="fill:#4c7689; stroke-width:0px;"/><circle cx="122" cy="422" r="10" style="fill:#003c57; stroke-width:0px;"/><circle cx="182" cy="422" r="10" style="fill:#4c7689; stroke-width:0px;"/><circle cx="242" cy="422" r="20" style="fill:#003c57; stroke-width:0px;"/><circle cx="302" cy="422" r="15" style="fill:#003c57; stroke-width:0px;"/><circle cx="362" cy="422" r="5" style="fill:#99b1bc; stroke-width:0px;"/><circle cx="422" cy="422" r="15" style="fill:#003c57; stroke-width:0px;"/><circle cx="482" cy="422" r="5" style="fill:#99b1bc; stroke-width:0px;"/><circle cx="542" cy="422" r="20" style="fill:#4c7689; stroke-width:0px;"/><circle cx="602" cy="422" r="10" style="fill:#003c57; stroke-width:0px;"/><circle cx="662" cy="422" r="20" style="fill:#003c57; stroke-width:0px;"/><circle cx="722" cy="422" r="20" style="fill:#003c57; stroke-width:0px;"/><circle cx="782" cy="422" r="15" style="fill:#4c7689; stroke-width:0px;"/><circle cx="842" cy="422" r="15" style="fill:#99b1bc; stroke-width:0px;"/><circle cx="902" cy="422" r="5" style="fill:#4c7689; stroke-width:0px;"/><circle cx="962" cy="422" r="5" style="fill:#003c57; stroke-width:0px;"/><circle cx="62" cy="482" r="20" style="fill:#003c57; stroke-width:0px;"/><circle cx="122" cy="482" r="20" style="fill:#99b1bc; stroke-width:0px;"/><circle cx="182" cy="482" r="10" style="fill:#4c7689; stroke-width:0px;"/><circle cx="242" cy="482" r="20" style="fill:#99b1bc; stroke-width:0px;"/><circle cx="302" cy="482" r="15" style="fill:#003c57; stroke-width:0px;"/><circle cx="362" cy="482" r="15" style="fill:#003c57; stroke-width:0px;"/><circle cx="422" cy="482" r="15" style="fill:#003c57; stroke-width:0px;"/><circle cx="482" cy="482" r="5" style="fill:#99b1bc; stroke-width:0px;"/><circle cx="542" cy="482" r="20" style="fill:#4c7689; stroke-width:0px;"/><circle cx="602" cy="482" r="20" style="fill:#99b1bc; stroke-width:0px;"/><circle cx="662" cy="482" r="20" style="fill:#003c57; stroke-width:0px;"/><circle cx="722" cy="482" r="20" style="fill:#003c57; stroke-width:0px;"/><circle cx="782" cy="482" r="5" style="fill:#003c57; stroke-width:0px;"/><circle cx="842" cy="482" r="5" style="fill:#99b1bc; stroke-width:0px;"/><circle cx="902" cy="482" r="5" style="fill:#4c7689; stroke-width:0px;"/><circle cx="962" cy="482" r="5" style="fill:#99b1bc; stroke-width:0px;"/><circle cx="62" cy="542" r="5" style="fill:#003c57; stroke-width:0px;"/><circle cx="122" cy="542" r="5" style="fill:#99b1bc; stroke-width:0px;"/><circle cx="182" cy="542" r="5" style="fill:#4c7689; stroke-width:0px;"/><circle cx="242" cy="542" r="5" style="fill:#99b1bc; stroke-width:0px;"/><circle cx="302" cy="542" r="10" style="fill:#4c7689; stroke-width:0px;"/><circle cx="362" cy="542" r="10" style="fill:#99b1bc; stroke-width:0px;"/><circle cx="422" cy="542" r="10" style="fill:#99b1bc; stroke-width:0px;"/><circle cx="482" cy="542" r="20" style="fill:#003c57; stroke-width:0px;"/><circle cx="542" cy="542" r="5" style="fill:#003c57; stroke-width:0px;"/><circle cx="602" cy="542" r="5" style="fill:#4c7689; stroke-width:0px;"/><circle cx="662" cy="542" r="15" style="fill:#4c7689; stroke-width:0px;"/><circle cx="722" cy="542" r="5" style="fill:#99b1bc; stroke-width:0px;"/><circle cx="782" cy="542" r="10" style="fill:#4c7689; stroke-width:0px;"/><circle cx="842" cy="542" r="10" style="fill:#99b1bc; stroke-width:0px;"/><circle cx="902" cy="542" r="20" style="fill:#4c7689; stroke-width:0px;"/><circle cx="962" cy="542" r="20" style="fill:#003c57; stroke-width:0px;"/><circle cx="62" cy="602" r="5" style="fill:#003c57; stroke-width:0px;"/><circle cx="122" cy="602" r="15" style="fill:#003c57; stroke-width:0px;"/><circle cx="182" cy="602" r="5" style="fill:#4c7689; stroke-width:0px;"/><circle cx="242" cy="602" r="5" style="fill:#99b1bc; stroke-width:0px;"/><circle cx="302" cy="602" r="10" style="fill:#4c7689; stroke-width:0px;"/><circle cx="362" cy="602" r="20" style="fill:#003c57; stroke-width:0px;"/><circle cx="422" cy="602" r="10" style="fill:#003c57; stroke-width:0px;"/><circle cx="482" cy="602" r="20" style="fill:#003c57; stroke-width:0px;"/><circle cx="542" cy="602" r="5" style="fill:#4c7689; stroke-width:0px;"/><circle cx="602" cy="602" r="15" style="fill:#99b1bc; stroke-width:0px;"/><circle cx="662" cy="602" r="15" style="fill:#4c7689; stroke-width:0px;"/><circle cx="722" cy="602" r="5" style="fill:#003c57; stroke-width:0px;"/><circle cx="782" cy="602" r="10" style="fill:#003c57; stroke-width:0px;"/><circle cx="842" cy="602" r="20" style="fill:#99b1bc; stroke-width:0px;"/><circle cx="902" cy="602" r="20" style="fill:#4c7689; stroke-width:0px;"/><circle cx="962" cy="602" r="20" style="fill:#99b1bc; stroke-width:0px;"/><circle cx="62" cy="662" r="15" style="fill:#003c57; stroke-width:0px;"/><circle cx="122" cy="662" r="5" style="fill:#003c57; stroke-width:0px;"/><circle cx="182" cy="662" r="5" style="fill:#003c57; stroke-width:0px;"/><circle cx="242" cy="662" r="5" style="fill:#99b1bc; stroke-width:0px;"/><circle cx="302" cy="662" r="20" style="fill:#4c7689; stroke-width:0px;"/><circle cx="362" cy="662" r="10" style="fill:#003c57; stroke-width:0px;"/><circle cx="422" cy="662" r="10" style="fill:#4c7689; stroke-width:0px;"/><circle cx="482" cy="662" r="20" style="fill:#003c57; stroke-width:0px;"/><circle cx="542" cy="662" r="15" style="fill:#003c57; stroke-width:0px;"/><circle cx="602" cy="662" r="5" style="fill:#99b1bc; stroke-width:0px;"/><circle cx="662" cy="662" r="15" style="fill:#003c57; stroke-width:0px;"/><circle cx="722" cy="662" r="5" style="fill:#003c57; stroke-width:0px;"/><circle cx="782" cy="662" r="20" style="fill:#4c7689; stroke-width:0px;"/><circle cx="842" cy="662" r="10" style="fill:#003c57; stroke-width:0px;"/><circle cx="902" cy="662" r="20" style="fill:#003c57; stroke-width:0px;"/><circle cx="962" cy="662" r="20" style="fill:#003c57; stroke-width:0px;"/><circle cx="62" cy="722" r="15" style="fill:#4c7689; stroke-width:0px;"/><circle cx="122" cy="722" r="15" style="fill:#99b1bc; stroke-width:0px;"/><circle cx="182" cy="722" r="5" style="fill:#4c7689; stroke-width:0px;"/><circle cx="242" cy="722" r="5" style="fill:#003c57; stroke-width:0px;"/><circle cx="302" cy="722" r="20" style="fill:#003c57; stroke-width:0px;"/><circle cx="362" cy="722" r="20" style="fill:#99b1bc; stroke-width:0px;"/><circle cx="422" cy="722" r="10" style="fill:#4c7689; stroke-width:0px;"/><circle cx="482" cy="722" r="20" style="fill:#99b1bc; stroke-width:0px;"/><circle cx="542" cy="722" r="15" style="fill:#003c57; stroke-width:0px;"/><circle cx="602" cy="722" r="15" style="fill:#003c57; stroke-width:0px;"/><circle cx="662" cy="722" r="15" style="fill:#003c57; stroke-width:0px;"/><circle cx="722" cy="722" r="5" style="fill:#99b1bc; stroke-width:0px;"/><circle cx="782" cy="722" r="20" style="fill:#4c7689; stroke-width:0px;"/><circle cx="842" cy="722" r="20" style="fill:#99b1bc; stroke-width:0px;"/><circle cx="902" cy="722" r="20" style="fill:#003c57; stroke-width:0px;"/><circle cx="962" cy="722" r="20" style="fill:#003c57; stroke-width:0px;"/><circle cx="62" cy="782" r="10" style="fill:#4c7689; stroke-width:0px;"/><circle cx="122" cy="782" r="10" style="fill:#99b1bc; stroke-width:0px;"/><circle cx="182" cy="782" r="10" style="fill:#003c57; stroke-width:0px;"/><circle cx="242" cy="782" r="20" style="fill:#003c57; stroke-width:0px;"/><circle cx="302" cy="782" r="5" style="fill:#003c57; stroke-width:0px;"/><circle cx="362" cy="782" r="5" style="fill:#99b1bc; stroke-width:0px;"/><circle cx="422" cy="782" r="15" style="fill:#4c7689; stroke-width:0px;"/><circle cx="482" cy="782" r="5" style="fill:#99b1bc; stroke-width:0px;"/><circle cx="542" cy="782" r="10" style="fill:#4c7689; stroke-width:0px;"/><circle cx="602" cy="782" r="10" style="fill:#99b1bc; stroke-width:0px;"/><circle cx="662" cy="782" r="20" style="fill:#99b1bc; stroke-width:0px;"/><circle cx="722" cy="782" r="20" style="fill:#003c57; stroke-width:0px;"/><circle cx="782" cy="782" r="5" style="fill:#003c57; stroke-width:0px;"/><circle cx="842" cy="782" r="15" style="fill:#4c7689; stroke-width:0px;"/><circle cx="902" cy="782" r="5" style="fill:#4c7689; stroke-width:0px;"/><circle cx="962" cy="782" r="5" style="fill:#99b1bc; stroke-width:0px;"/><circle cx="62" cy="842" r="10" style="fill:#4c7689; stroke-width:0px;"/><circle cx="122" cy="842" r="20" style="fill:#99b1bc; stroke-width:0px;"/><circle cx="182" cy="842" r="10" style="fill:#4c7689; stroke-width:0px;"/><circle cx="242" cy="842" r="20" style="fill:#003c57; stroke-width:0px;"/><circle cx="302" cy="842" r="5" style="fill:#003c57; stroke-width:0px;"/><circle cx="362" cy="842" r="15" style="fill:#003c57; stroke-width:0px;"/><circle cx="422" cy="842" r="15" style="fill:#4c7689; stroke-width:0px;"/><circle cx="482" cy="842" r="5" style="fill:#99b1bc; stroke-width:0px;"/><circle cx="542" cy="842" r="10" style="fill:#4c7689; stroke-width:0px;"/><circle cx="602" cy="842" r="20" style="fill:#003c57; stroke-width:0px;"/><circle cx="662" cy="842" r="20" style="fill:#003c57; stroke-width:0px;"/><circle cx="722" cy="842" r="20" style="fill:#003c57; stroke-width:0px;"/><circle cx="782" cy="842" r="15" style="fill:#4c7689; stroke-width:0px;"/><circle cx="842" cy="842" r="5" style="fill:#99b1bc; stroke-width:0px;"/><circle cx="902" cy="842" r="5" style="fill:#4c7689; stroke-width:0px;"/><circle cx="962" cy="842" r="5" style="fill:#003c57; stroke-width:0px;"/><circle cx="62" cy="902" r="20" style="fill:#003c57; stroke-width:0px;"/><circle cx="122" cy="902" r="10" style="fill:#99b1bc; stroke-width:0px;"/><circle cx="182" cy="902" r="10" style="fill:#4c7689; stroke-width:0px;"/><circle cx="242" cy="902" r="20" style="fill:#99b1bc; stroke-width:0px;"/><circle cx="302" cy="902" r="15" style="fill:#003c57; stroke-width:0px;"/><circle cx="362" cy="902" r="5" style="fill:#003c57; stroke-width:0px;"/><circle cx="422" cy="902" r="15" style="fill:#003c57; stroke-width:0px;"/><circle cx="482" cy="902" r="5" style="fill:#99b1bc; stroke-width:0px;"/><circle cx="542" cy="902" r="20" style="fill:#003c57; stroke-width:0px;"/><circle cx="602" cy="902" r="10" style="fill:#003c57; stroke-width:0px;"/><circle cx="662" cy="902" r="20" style="fill:#4c7689; stroke-width:0px;"/><circle cx="722" cy="902" r="20" style="fill:#003c57; stroke-width:0px;"/><circle cx="782" cy="902" r="15" style="fill:#003c57; stroke-width:0px;"/><circle cx="842" cy="902" r="15" style="fill:#99b1bc; stroke-width:0px;"/><circle cx="902" cy="902" r="5" style="fill:#003c57; stroke-width:0px;"/><circle cx="962" cy="902" r="5" style="fill:#99b1bc; stroke-width:0px;"/><circle cx="62" cy="962" r="20" style="fill:#4c7689; stroke-width:0px;"/><circle cx="122" cy="962" r="20" style="fill:#003c57; stroke-width:0px;"/><circle cx="182" cy="962" r="10" style="fill:#003c57; stroke-width:0px;"/><circle cx="242" cy="962" r="20" style="fill:#003c57; stroke-width:0px;"/><circle cx="302" cy="962" r="15" style="fill:#4c7689; stroke-width:0px;"/><circle cx="362" cy="962" r="15" style="fill:#99b1bc; stroke-width:0px;"/><circle cx="422" cy="962" r="15" style="fill:#4c7689; stroke-width:0px;"/><circle cx="482" cy="962" r="5" style="fill:#003c57; stroke-width:0px;"/><circle cx="542" cy="962" r="20" style="fill:#003c57; stroke-width:0px;"/><circle cx="602" cy="962" r="20" style="fill:#99b1bc; stroke-width:0px;"/><circle cx="662" cy="962" r="20" style="fill:#4c7689; stroke-width:0px;"/><circle cx="722" cy="962" r="20" style="fill:#99b1bc; stroke-width:0px;"/><circle cx="782" cy="962" r="5" style="fill:#003c57; stroke-width:0px;"/><circle cx="842" cy="962" r="5" style="fill:#003c57; stroke-width:0px;"/><circle cx="902" cy="962" r="5" style="fill:#003c57; stroke-width:0px;"/><circle cx="962" cy="962" r="5" style="fill:#99b1bc; stroke-width:0px;"/></g></svg>