<?xml version="1.0" encoding="UTF-8"?><svg id="Layer_1" xmlns="http://www.w3.org/2000/svg" viewBox="0 0 940 940"><g id="Visual_Identity"><circle cx="20" cy="20" r="5" style="fill:#003c57; stroke-width:0px;"/><circle cx="80" cy="20" r="5" style="fill:#4c7689; stroke-width:0px;"/><circle cx="140" cy="20" r="5" style="fill:#4c7689; stroke-width:0px;"/><circle cx="200" cy="20" r="5" style="fill:#99b1bc; stroke-width:0px;"/><circle cx="260" cy="20" r="10" style="fill:#4c7689; stroke-width:0px;"/><circle cx="320" cy="20" r="10" style="fill:#99b1bc; stroke-width:0px;"/><circle cx="380" cy="20" r="10" style="fill:#4c7689; stroke-width:0px;"/><circle cx="440" cy="20" r="20" style="fill:#003c57; stroke-width:0px;"/><circle cx="500" cy="20" r="5" style="fill:#003c57; stroke-width:0px;"/><circle cx="560" cy="20" r="5" style="fill:#003c57; stroke-width:0px;"/><circle cx="620" cy="20" r="15" style="fill:#4c7689; stroke-width:0px;"/><circle cx="680" cy="20" r="5" style="fill:#99b1bc; stroke-width:0px;"/><circle cx="740" cy="20" r="10" style="fill:#4c7689; stroke-width:0px;"/><circle cx="800" cy="20" r="10" style="fill:#003c57; stroke-width:0px;"/><circle cx="860" cy="20" r="20" style="fill:#003c57; stroke-width:0px;"/><circle cx="920" cy="20" r="20" style="fill:#003c57; stroke-width:0px;"/><circle cx="20" cy="80" r="5" style="fill:#4c7689; stroke-width:0px;"/><circle cx="80" cy="80" r="15" style="fill:#99b1bc; stroke-width:0px;"/><circle cx="140" cy="80" r="5" style="fill:#4c7689; stroke-width:0px;"/><circle cx="200" cy="80" r="5" style="fill:#003c57; stroke-width:0px;"/><circle cx="260" cy="80" r="10" style="fill:#003c57; stroke-width:0px;"/><circle cx="320" cy="80" r="20" style="fill:#99b1bc; stroke-width:0px;"/><circle cx="380" cy="80" r="10" style="fill:#4c7689; stroke-width:0px;"/><circle cx="440" cy="80" r="20" style="fill:#99b1bc; stroke-width:0px;"/><circle cx="500" cy="80" r="5" style="fill:#003c57; stroke-width:0px;"/><circle cx="560" cy="80" r="15" style="fill:#003c57; stroke-width:0px;"/><circle cx="620" cy="80" r="15" style="fill:#003c57; stroke-width:0px;"/><circle cx="680" cy="80" r="5" style="fill:#99b1bc; stroke-width:0px;"/><circle cx="740" cy="80" r="10" style="fill:#4c7689; stroke-width:0px;"/><circle cx="800" cy="80" r="20" style="fill:#003c57; stroke-width:0px;"/><circle cx="860" cy="80" r="20" style="fill:#4c7689; stroke-width:0px;"/><circle cx="920" cy="80" r="20" style="fill:#003c57; stroke-width:0px;"/><circle cx="20" cy="140" r="15" style="fill:#003c57; stroke-width:0px;"/><circle cx="80" cy="140" r="5" style="fill:#99b1bc; stroke-width:0px;"/><circle cx="140" cy="140" r="5" style="fill:#003c57; stroke-width:0px;"/><circle cx="200" cy="140" r="5" style="fill:#99b1bc; stroke-width:0px;"/><circle cx="260" cy="140" r="20" style="fill:#4c7689; stroke-width:0px;"/><circle cx="320" cy="140" r="10" style="fill:#003c57; stroke-width:0px;"/><circle cx="380" cy="140" r="10" style="fill:#003c57; stroke-width:0px;"/><circle cx="440" cy="140" r="20" style="fill:#003c57; stroke-width:0px;"/><circle cx="500" cy="140" r="15" style="fill:#4c7689; stroke-width:0px;"/><circle cx="560" cy="140" r="5" style="fill:#99b1bc; stroke-width:0px;"/><circle cx="620" cy="140" r="15" style="fill:#4c7689; stroke-width:0px;"/><circle cx="680" cy="140" r="5" style="fill:#003c57; stroke-width:0px;"/><circle cx="740" cy="140" r="20" style="fill:#003c57; stroke-width:0px;"/><circle cx="800" cy="140" r="10" style="fill:#99b1bc; stroke-width:0px;"/><circle cx="860" cy="140" r="20" style="fill:#4c7689; stroke-width:0px;"/><circle cx="920" cy="140" r="20" style="fill:#99b1bc; stroke-width:0px;"/><circle cx="20" cy="200" r="15" style="fill:#003c57; stroke-width:0px;"/><circle cx="80" cy="200" r="15" style="fill:#003c57; stroke-width:0px;"/><circle cx="140" cy="200" r="5" style="fill:#003c57; stroke-width:0px;"/><circle cx="200" cy="200" r="5" style="fill:#99b1bc; stroke-width:0px;"/><circle cx="260" cy="200" r="20" style="fill:#4c7689; stroke-width:0px;"/><circle cx="320" cy="200" r="20" style="fill:#99b1bc; stroke-width:0px;"/><circle cx="380" cy="200" r="10" style="fill:#003c57; stroke-width:0px;"/><circle cx="440" cy="200" r="20" style="fill:#003c57; stroke-width:0px;"/><circle cx="500" cy="200" r="15" style="fill:#003c57; stroke-width:0px;"/><circle cx="560" cy="200" r="15" style="fill:#99b1bc; stroke-width:0px;"/><circle cx="620" cy="200" r="15" style="fill:#4c7689; stroke-width:0px;"/><circle cx="680" cy="200" r="5" style="fill:#99b1bc; stroke-width:0px;"/><circle cx="740" cy="200" r="20" style="fill:#4c7689; stroke-width:0px;"/><circle cx="800" cy="200" r="20" style="fill:#99b1bc; stroke-width:0px;"/><circle cx="860" cy="200" r="20" style="fill:#99b1bc; stroke-width:0px;"/><circle cx="920" cy="200" r="20" style="fill:#003c57; stroke-width:0px;"/><circle cx="20" cy="260" r="10" style="fill:#4c7689; stroke-width:0px;"/><circle cx="80" cy="260" r="10" style="fill:#99b1bc; stroke-width:0px;"/><circle cx="140" cy="260" r="10" style="fill:#99b1bc; stroke-width:0px;"/><circle cx="200" cy="260" r="20" style="fill:#003c57; stroke-width:0px;"/><circle cx="260" cy="260" r="5" style="fill:#003c57; stroke-width:0px;"/><circle cx="320" cy="260" r="5" style="fill:#4c7689; stroke-width:0px;"/><circle cx="380" cy="260" r="15" style="fill:#4c7689; stroke-width:0px;"/><circle cx="440" cy="260" r="5" style="fill:#99b1bc; stroke-width:0px;"/><circle cx="500" cy="260" r="10" style="fill:#4c7689; stroke-width:0px;"/><circle cx="560" cy="260" r="10" style="fill:#99b1bc; stroke-width:0px;"/><circle cx="620" cy="260" r="20" style="fill:#4c7689; stroke-width:0px;"/><circle cx="680" cy="260" r="20" style="fill:#003c57; stroke-width:0px;"/><circle cx="740" cy="260" r="5" style="fill:#003c57; stroke-width:0px;"/><circle cx="800" cy="260" r="15" style="fill:#003c57; stroke-width:0px;"/><circle cx="860" cy="260" r="5" style="fill:#4c7689; stroke-width:0px;"/><circle cx="920" cy="260" r="5" style="fill:#99b1bc; stroke-width:0px;"/><circle cx="20" cy="320" r="10" style="fill:#4c7689; stroke-width:0px;"/><circle cx="80" cy="320" r="20" style="fill:#003c57; stroke-width:0px;"/><circle cx="140" cy="320" r="10" style="fill:#003c57; stroke-width:0px;"/><circle cx="200" cy="320" r="20" style="fill:#003c57; stroke-width:0px;"/><circle cx="260" cy="320" r="5" style="fill:#4c7689; stroke-width:0px;"/><circle cx="320" cy="320" r="15" style="fill:#99b1bc; stroke-width:0px;"/><circle cx="380" cy="320" r="15" style="fill:#4c7689; stroke-width:0px;"/><circle cx="440" cy="320" r="5" style="fill:#003c57; stroke-width:0px;"/><circle cx="500" cy="320" r="10" style="fill:#003c57; stroke-width:0px;"/><circle cx="560" cy="320" r="20" style="fill:#99b1bc; stroke-width:0px;"/><circle cx="620" cy="320" r="20" style="fill:#4c7689; stroke-width:0px;"/><circle cx="680" cy="320" r="20" style="fill:#99b1bc; stroke-width:0px;"/><circle cx="740" cy="320" r="15" style="fill:#003c57; stroke-width:0px;"/><circle cx="800" cy="320" r="5" style="fill:#003c57; stroke-width:0px;"/><circle cx="860" cy="320" r="5" style="fill:#003c57; stroke-width:0px;"/><circle cx="920" cy="320" r="5" style="fill:#99b1bc; stroke-width:0px;"/><circle cx="20" cy="380" r="20" style="fill:#4c7689; stroke-width:0px;"/><circle cx="80" cy="380" r="10" style="fill:#003c57; stroke-width:0px;"/><circle cx="140" cy="380" r="10" style="fill:#4c7689; stroke-width:0px;"/><circle cx="200" cy="380" r="20" style="fill:#003c57; stroke-width:0px;"/><circle cx="260" cy="380" r="15" style="fill:#003c57; stroke-width:0px;"/><circle cx="320" cy="380" r="5" style="fill:#99b1bc; stroke-width:0px;"/><circle cx="380" cy="380" r="15" style="fill:#003c57; stroke-width:0px;"/><circle cx="440" cy="380" r="5" style="fill:#99b1bc; stroke-width:0px;"/><circle cx="500" cy="380" r="20" style="fill:#4c7689; stroke-width:0px;"/><circle cx="560" cy="380" r="10" style="fill:#003c57; stroke-width:0px;"/><circle cx="620" cy="380" r="20" style="fill:#003c57; stroke-width:0px;"/><circle cx="680" cy="380" r="20" style="fill:#003c57; stroke-width:0px;"/><circle cx="740" cy="380" r="15" style="fill:#4c7689; stroke-width:0px;"/><circle cx="800" cy="380" r="15" style="fill:#99b1bc; stroke-width:0px;"/><circle cx="860" cy="380" r="5" style="fill:#4c7689; stroke-width:0px;"/><circle cx="920" cy="380" r="5" style="fill:#003c57; stroke-width:0px;"/><circle cx="20" cy="440" r="20" style="fill:#003c57; stroke-width:0px;"/><circle cx="80" cy="440" r="20" style="fill:#99b1bc; stroke-width:0px;"/><circle cx="140" cy="440" r="10" style="fill:#4c7689; stroke-width:0px;"/><circle cx="200" cy="440" r="20" style="fill:#99b1bc; stroke-width:0px;"/><circle cx="260" cy="440" r="15" style="fill:#003c57; stroke-width:0px;"/><circle cx="320" cy="440" r="15" style="fill:#003c57; stroke-width:0px;"/><circle cx="380" cy="440" r="15" style="fill:#003c57; stroke-width:0px;"/><circle cx="440" cy="440" r="5" style="fill:#99b1bc; stroke-width:0px;"/><circle cx="500" cy="440" r="20" style="fill:#4c7689; stroke-width:0px;"/><circle cx="560" cy="440" r="20" style="fill:#99b1bc; stroke-width:0px;"/><circle cx="620" cy="440" r="20" style="fill:#003c57; stroke-width:0px;"/><circle cx="680" cy="440" r="20" style="fill:#003c57; stroke-width:0px;"/><circle cx="740" cy="440" r="5" style="fill:#003c57; stroke-width:0px;"/><circle cx="800" cy="440" r="5" style="fill:#99b1bc; stroke-width:0px;"/><circle cx="860" cy="440" r="5" style="fill:#4c7689; stroke-width:0px;"/><circle cx="920" cy="440" r="5" style="fill:#99b1bc; stroke-width:0px;"/><circle cx="20" cy="500" r="5" style="fill:#003c57; stroke-width:0px;"/><circle cx="80" cy="500" r="5" style="fill:#99b1bc; stroke-width:0px;"/><circle cx="140" cy="500" r="5" style="fill:#4c7689; stroke-width:0px;"/><circle cx="200" cy="500" r="5" style="fill:#99b1bc; stroke-width:0px;"/><circle cx="260" cy="500" r="10" style="fill:#4c7689; stroke-width:0px;"/><circle cx="320" cy="500" r="10" style="fill:#99b1bc; stroke-width:0px;"/><circle cx="380" cy="500" r="10" style="fill:#99b1bc; stroke-width:0px;"/><circle cx="440" cy="500" r="20" style="fill:#003c57; stroke-width:0px;"/><circle cx="500" cy="500" r="5" style="fill:#003c57; stroke-width:0px;"/><circle cx="560" cy="500" r="5" style="fill:#4c7689; stroke-width:0px;"/><circle cx="620" cy="500" r="15" style="fill:#4c7689; stroke-width:0px;"/><circle cx="680" cy="500" r="5" style="fill:#99b1bc; stroke-width:0px;"/><circle cx="740" cy="500" r="10" style="fill:#4c7689; stroke-width:0px;"/><circle cx="800" cy="500" r="10" style="fill:#99b1bc; stroke-width:0px;"/><circle cx="860" cy="500" r="20" style="fill:#4c7689; stroke-width:0px;"/><circle cx="920" cy="500" r="20" style="fill:#003c57; stroke-width:0px;"/><circle cx="20" cy="560" r="5" style="fill:#003c57; stroke-width:0px;"/><circle cx="80" cy="560" r="15" style="fill:#003c57; stroke-width:0px;"/><circle cx="140" cy="560" r="5" style="fill:#4c7689; stroke-width:0px;"/><circle cx="200" cy="560" r="5" style="fill:#99b1bc; stroke-width:0px;"/><circle cx="260" cy="560" r="10" style="fill:#4c7689; stroke-width:0px;"/><circle cx="320" cy="560" r="20" style="fill:#003c57; stroke-width:0px;"/><circle cx="380" cy="560" r="10" style="fill:#003c57; stroke-width:0px;"/><circle cx="440" cy="560" r="20" style="fill:#003c57; stroke-width:0px;"/><circle cx="500" cy="560" r="5" style="fill:#4c7689; stroke-width:0px;"/><circle cx="560" cy="560" r="15" style="fill:#99b1bc; stroke-width:0px;"/><circle cx="620" cy="560" r="15" style="fill:#4c7689; stroke-width:0px;"/><circle cx="680" cy="560" r="5" style="fill:#003c57; stroke-width:0px;"/><circle cx="740" cy="560" r="10" style="fill:#003c57; stroke-width:0px;"/><circle cx="800" cy="560" r="20" style="fill:#99b1bc; stroke-width:0px;"/><circle cx="860" cy="560" r="20" style="fill:#4c7689; stroke-width:0px;"/><circle cx="920" cy="560" r="20" style="fill:#99b1bc; stroke-width:0px;"/><circle cx="20" cy="620" r="15" style="fill:#003c57; stroke-width:0px;"/><circle cx="80" cy="620" r="5" style="fill:#003c57; stroke-width:0px;"/><circle cx="140" cy="620" r="5" style="fill:#003c57; stroke-width:0px;"/><circle cx="200" cy="620" r="5" style="fill:#99b1bc; stroke-width:0px;"/><circle cx="260" cy="620" r="20" style="fill:#4c7689; stroke-width:0px;"/><circle cx="320" cy="620" r="10" style="fill:#003c57; stroke-width:0px;"/><circle cx="380" cy="620" r="10" style="fill:#4c7689; stroke-width:0px;"/><circle cx="440" cy="620" r="20" style="fill:#003c57; stroke-width:0px;"/><circle cx="500" cy="620" r="15" style="fill:#003c57; stroke-width:0px;"/><circle cx="560" cy="620" r="5" style="fill:#99b1bc; stroke-width:0px;"/><circle cx="620" cy="620" r="15" style="fill:#003c57; stroke-width:0px;"/><circle cx="680" cy="620" r="5" style="fill:#003c57; stroke-width:0px;"/><circle cx="740" cy="620" r="20" style="fill:#4c7689; stroke-width:0px;"/><circle cx="800" cy="620" r="10" style="fill:#003c57; stroke-width:0px;"/><circle cx="860" cy="620" r="20" style="fill:#003c57; stroke-width:0px;"/><circle cx="920" cy="620" r="20" style="fill:#003c57; stroke-width:0px;"/><circle cx="20" cy="680" r="15" style="fill:#4c7689; stroke-width:0px;"/><circle cx="80" cy="680" r="15" style="fill:#99b1bc; stroke-width:0px;"/><circle cx="140" cy="680" r="5" style="fill:#4c7689; stroke-width:0px;"/><circle cx="200" cy="680" r="5" style="fill:#003c57; stroke-width:0px;"/><circle cx="260" cy="680" r="20" style="fill:#003c57; stroke-width:0px;"/><circle cx="320" cy="680" r="20" style="fill:#99b1bc; stroke-width:0px;"/><circle cx="380" cy="680" r="10" style="fill:#4c7689; stroke-width:0px;"/><circle cx="440" cy="680" r="20" style="fill:#99b1bc; stroke-width:0px;"/><circle cx="500" cy="680" r="15" style="fill:#003c57; stroke-width:0px;"/><circle cx="560" cy="680" r="15" style="fill:#003c57; stroke-width:0px;"/><circle cx="620" cy="680" r="15" style="fill:#003c57; stroke-width:0px;"/><circle cx="680" cy="680" r="5" style="fill:#99b1bc; stroke-width:0px;"/><circle cx="740" cy="680" r="20" style="fill:#4c7689; stroke-width:0px;"/><circle cx="800" cy="680" r="20" style="fill:#99b1bc; stroke-width:0px;"/><circle cx="860" cy="680" r="20" style="fill:#003c57; stroke-width:0px;"/><circle cx="920" cy="680" r="20" style="fill:#003c57; stroke-width:0px;"/><circle cx="20" cy="740" r="10" style="fill:#4c7689; stroke-width:0px;"/><circle cx="80" cy="740" r="10" style="fill:#99b1bc; stroke-width:0px;"/><circle cx="140" cy="740" r="10" style="fill:#003c57; stroke-width:0px;"/><circle cx="200" cy="740" r="20" style="fill:#003c57; stroke-width:0px;"/><circle cx="260" cy="740" r="5" style="fill:#003c57; stroke-width:0px;"/><circle cx="320" cy="740" r="5" style="fill:#99b1bc; stroke-width:0px;"/><circle cx="380" cy="740" r="15" style="fill:#4c7689; stroke-width:0px;"/><circle cx="440" cy="740" r="5" style="fill:#99b1bc; stroke-width:0px;"/><circle cx="500" cy="740" r="10" style="fill:#4c7689; stroke-width:0px;"/><circle cx="560" cy="740" r="10" style="fill:#99b1bc; stroke-width:0px;"/><circle cx="620" cy="740" r="20" style="fill:#99b1bc; stroke-width:0px;"/><circle cx="680" cy="740" r="20" style="fill:#003c57; stroke-width:0px;"/><circle cx="740" cy="740" r="5" style="fill:#003c57; stroke-width:0px;"/><circle cx="800" cy="740" r="15" style="fill:#4c7689; stroke-width:0px;"/><circle cx="860" cy="740" r="5" style="fill:#4c7689; stroke-width:0px;"/><circle cx="920" cy="740" r="5" style="fill:#99b1bc; stroke-width:0px;"/><circle cx="20" cy="800" r="10" style="fill:#4c7689; stroke-width:0px;"/><circle cx="80" cy="800" r="20" style="fill:#99b1bc; stroke-width:0px;"/><circle cx="140" cy="800" r="10" style="fill:#4c7689; stroke-width:0px;"/><circle cx="200" cy="800" r="20" style="fill:#003c57; stroke-width:0px;"/><circle cx="260" cy="800" r="5" style="fill:#003c57; stroke-width:0px;"/><circle cx="320" cy="800" r="15" style="fill:#003c57; stroke-width:0px;"/><circle cx="380" cy="800" r="15" style="fill:#4c7689; stroke-width:0px;"/><circle cx="440" cy="800" r="5" style="fill:#99b1bc; stroke-width:0px;"/><circle cx="500" cy="800" r="10" style="fill:#4c7689; stroke-width:0px;"/><circle cx="560" cy="800" r="20" style="fill:#003c57; stroke-width:0px;"/><circle cx="620" cy="800" r="20" style="fill:#003c57; stroke-width:0px;"/><circle cx="680" cy="800" r="20" style="fill:#003c57; stroke-width:0px;"/><circle cx="740" cy="800" r="15" style="fill:#4c7689; stroke-width:0px;"/><circle cx="800" cy="800" r="5" style="fill:#99b1bc; stroke-width:0px;"/><circle cx="860" cy="800" r="5" style="fill:#4c7689; stroke-width:0px;"/><circle cx="920" cy="800" r="5" style="fill:#003c57; stroke-width:0px;"/><circle cx="20" cy="860" r="20" style="fill:#003c57; stroke-width:0px;"/><circle cx="80" cy="860" r="10" style="fill:#99b1bc; stroke-width:0px;"/><circle cx="140" cy="860" r="10" style="fill:#4c7689; stroke-width:0px;"/><circle cx="200" cy="860" r="20" style="fill:#99b1bc; stroke-width:0px;"/><circle cx="260" cy="860" r="15" style="fill:#003c57; stroke-width:0px;"/><circle cx="320" cy="860" r="5" style="fill:#003c57; stroke-width:0px;"/><circle cx="380" cy="860" r="15" style="fill:#003c57; stroke-width:0px;"/><circle cx="440" cy="860" r="5" style="fill:#99b1bc; stroke-width:0px;"/><circle cx="500" cy="860" r="20" style="fill:#003c57; stroke-width:0px;"/><circle cx="560" cy="860" r="10" style="fill:#003c57; stroke-width:0px;"/><circle cx="620" cy="860" r="20" style="fill:#4c7689; stroke-width:0px;"/><circle cx="680" cy="860" r="20" style="fill:#003c57; stroke-width:0px;"/><circle cx="740" cy="860" r="15" style="fill:#003c57; stroke-width:0px;"/><circle cx="800" cy="860" r="15" style="fill:#99b1bc; stroke-width:0px;"/><circle cx="860" cy="860" r="5" style="fill:#003c57; stroke-width:0px;"/><circle cx="920" cy="860" r="5" style="fill:#99b1bc; stroke-width:0px;"/><circle cx="20" cy="920" r="20" style="fill:#4c7689; stroke-width:0px;"/><circle cx="80" cy="920" r="20" style="fill:#003c57; stroke-width:0px;"/><circle cx="140" cy="920" r="10" style="fill:#003c57; stroke-width:0px;"/><circle cx="200" cy="920" r="20" style="fill:#003c57; stroke-width:0px;"/><circle cx="260" cy="920" r="15" style="fill:#4c7689; stroke-width:0px;"/><circle cx="320" cy="920" r="15" style="fill:#99b1bc; stroke-width:0px;"/><circle cx="380" cy="920" r="15" style="fill:#4c7689; stroke-width:0px;"/><circle cx="440" cy="920" r="5" style="fill:#003c57; stroke-width:0px;"/><circle cx="500" cy="920" r="20" style="fill:#003c57; stroke-width:0px;"/><circle cx="560" cy="920" r="20" style="fill:#99b1bc; stroke-width:0px;"/><circle cx="620" cy="920" r="20" style="fill:#4c7689; stroke-width:0px;"/><circle cx="680" cy="920" r="20" style="fill:#99b1bc; stroke-width:0px;"/><circle cx="740" cy="920" r="5" style="fill:#003c57; stroke-width:0px;"/><circle cx="800" cy="920" r="5" style="fill:#003c57; stroke-width:0px;"/><circle cx="860" cy="920" r="5" style="fill:#003c57; stroke-width:0px;"/><circle cx="920" cy="920" r="5" style="fill:#99b1bc; stroke-width:0px;"/></g></svg>