<svg width="433" height="266" viewBox="0 0 433 266" fill="none" xmlns="http://www.w3.org/2000/svg">
<circle cx="5.5" cy="5.5" r="5.5" transform="matrix(-1 0 0 1 419 132)" fill="white"/>
<circle cx="5.5" cy="5.5" r="5.5" transform="matrix(-1 0 0 1 419 132)" fill="#003C57" fill-opacity="0.1"/>
<circle cx="5.5" cy="5.5" r="5.5" transform="matrix(-1 0 0 1 128 249)" fill="white"/>
<circle cx="5.5" cy="5.5" r="5.5" transform="matrix(-1 0 0 1 128 249)" fill="#003C57" fill-opacity="0.7"/>
<circle cx="5.5" cy="5.5" r="5.5" transform="matrix(-1 0 0 1 70 192)" fill="white"/>
<circle cx="5.5" cy="5.5" r="5.5" transform="matrix(-1 0 0 1 70 192)" fill="#003C57" fill-opacity="0.4"/>
<circle cx="5.5" cy="5.5" r="5.5" transform="matrix(-1 0 0 1 11 192)" fill="white"/>
<circle cx="5.5" cy="5.5" r="5.5" transform="matrix(-1 0 0 1 11 192)" fill="#206095" fill-opacity="0.1"/>
<circle cx="5.5" cy="5.5" r="5.5" transform="matrix(-1 0 0 1 128 75)" fill="white"/>
<circle cx="5.5" cy="5.5" r="5.5" transform="matrix(-1 0 0 1 128 75)" fill="#206095" fill-opacity="0.1"/>
<circle cx="5.5" cy="5.5" r="5.5" transform="matrix(-1 0 0 1 128 132)" fill="white"/>
<circle cx="5.5" cy="5.5" r="5.5" transform="matrix(-1 0 0 1 128 132)" fill="#003C57" fill-opacity="0.4"/>
<circle cx="5.5" cy="5.5" r="5.5" transform="matrix(-1 0 0 1 11 75)" fill="white"/>
<circle cx="5.5" cy="5.5" r="5.5" transform="matrix(-1 0 0 1 11 75)" fill="#206095" fill-opacity="0.1"/>
<circle cx="5.5" cy="5.5" r="5.5" transform="matrix(-1 0 0 1 419 75)" fill="white"/>
<circle cx="5.5" cy="5.5" r="5.5" transform="matrix(-1 0 0 1 419 75)" fill="#003C57" fill-opacity="0.4"/>
<circle cx="5.5" cy="5.5" r="5.5" transform="matrix(-1 0 0 1 355 15)" fill="white"/>
<circle cx="5.5" cy="5.5" r="5.5" transform="matrix(-1 0 0 1 355 15)" fill="#003C57" fill-opacity="0.7"/>
<circle cx="412.5" cy="20.5" r="20.5" fill="white"/>
<circle cx="412.5" cy="20.5" r="20.5" fill="#003C57" fill-opacity="0.7"/>
<circle cx="356.5" cy="80.5" r="20.5" fill="#E2E2E3"/>
<circle cx="356.5" cy="137.5" r="20.5" fill="white"/>
<circle cx="356.5" cy="137.5" r="20.5" fill="#003C57" fill-opacity="0.4"/>
<circle cx="356.5" cy="195.5" r="20.5" fill="white"/>
<circle cx="356.5" cy="195.5" r="20.5" fill="#003C57" fill-opacity="0.7"/>
<circle cx="180.5" cy="195.5" r="20.5" fill="white"/>
<circle cx="180.5" cy="195.5" r="20.5" fill="#003C57" fill-opacity="0.7"/>
<circle cx="14.5" cy="14.5" r="14.5" transform="matrix(-1 0 0 1 428 181)" fill="white"/>
<circle cx="14.5" cy="14.5" r="14.5" transform="matrix(-1 0 0 1 428 181)" fill="#003C57" fill-opacity="0.1"/>
<circle cx="14.5" cy="14.5" r="14.5" transform="matrix(-1 0 0 1 78 123)" fill="white"/>
<circle cx="14.5" cy="14.5" r="14.5" transform="matrix(-1 0 0 1 78 123)" fill="#003C57" fill-opacity="0.7"/>
<circle cx="14.5" cy="14.5" r="14.5" transform="matrix(-1 0 0 1 311 6)" fill="#E2E2E3"/>
<circle cx="9.5" cy="9.5" r="9.5" transform="matrix(-1 0 0 1 306 186)" fill="#E2E2E3"/>
<circle cx="9.5" cy="9.5" r="9.5" transform="matrix(-1 0 0 1 306 128)" fill="#F5F5F6"/>
<circle cx="9.5" cy="9.5" r="9.5" transform="matrix(-1 0 0 1 306 245)" fill="#F5F5F6"/>
<circle cx="9.5" cy="9.5" r="9.5" transform="matrix(-1 0 0 1 248 186)" fill="white"/>
<circle cx="9.5" cy="9.5" r="9.5" transform="matrix(-1 0 0 1 248 186)" fill="#003C57" fill-opacity="0.4"/>
<circle cx="9.5" cy="9.5" r="9.5" transform="matrix(-1 0 0 1 190 128)" fill="#F5F5F6"/>
<circle cx="9.5" cy="9.5" r="9.5" transform="matrix(-1 0 0 1 190 71)" fill="white"/>
<circle cx="9.5" cy="9.5" r="9.5" transform="matrix(-1 0 0 1 190 71)" fill="#003C57" fill-opacity="0.4"/>
<circle cx="9.5" cy="9.5" r="9.5" transform="matrix(-1 0 0 1 73 11)" fill="white"/>
<circle cx="9.5" cy="9.5" r="9.5" transform="matrix(-1 0 0 1 73 11)" fill="#003C57" fill-opacity="0.1"/>
<path fill-rule="evenodd" clip-rule="evenodd" d="M198.473 266C200.699 262.721 202 258.762 202 254.5C202 243.178 192.822 234 181.5 234C170.178 234 161 243.178 161 254.5C161 258.762 162.301 262.721 164.527 266H198.473Z" fill="white"/>
<path fill-rule="evenodd" clip-rule="evenodd" d="M198.473 266C200.699 262.721 202 258.762 202 254.5C202 243.178 192.822 234 181.5 234C170.178 234 161 243.178 161 254.5C161 258.762 162.301 262.721 164.527 266H198.473Z" fill="#003C57" fill-opacity="0.4"/>
<path fill-rule="evenodd" clip-rule="evenodd" d="M404.667 266C401.221 263.349 399 259.184 399 254.5C399 246.492 405.492 240 413.5 240C421.508 240 428 246.492 428 254.5C428 259.184 425.779 263.349 422.333 266H404.667Z" fill="#F5F5F6"/>
<path fill-rule="evenodd" clip-rule="evenodd" d="M255.473 266C257.699 262.721 259 258.762 259 254.5C259 243.178 249.822 234 238.5 234C227.178 234 218 243.178 218 254.5C218 258.762 219.301 262.721 221.527 266H255.473Z" fill="white"/>
<path fill-rule="evenodd" clip-rule="evenodd" d="M255.473 266C257.699 262.721 259 258.762 259 254.5C259 243.178 249.822 234 238.5 234C227.178 234 218 243.178 218 254.5C218 258.762 219.301 262.721 221.527 266H255.473Z" fill="#003C57" fill-opacity="0.4"/>
</svg>
