<svg width="489" height="301" viewBox="0 0 489 301" fill="none" xmlns="http://www.w3.org/2000/svg">
<ellipse cx="6.20301" cy="6.20301" rx="6.20301" ry="6.20301" transform="matrix(-1 0 0 1 472.557 148.872)" fill="#003C57"/>
<ellipse cx="6.20301" cy="6.20301" rx="6.20301" ry="6.20301" transform="matrix(-1 0 0 1 144.361 280.827)" fill="white"/>
<ellipse cx="6.20301" cy="6.20301" rx="6.20301" ry="6.20301" transform="matrix(-1 0 0 1 144.361 280.827)" fill="#206095" fill-opacity="0.7"/>
<ellipse cx="6.20301" cy="6.20301" rx="6.20301" ry="6.20301" transform="matrix(-1 0 0 1 78.9473 216.541)" fill="#003C57"/>
<ellipse cx="6.20301" cy="6.20301" rx="6.20301" ry="6.20301" transform="matrix(-1 0 0 1 12.4062 216.541)" fill="white"/>
<ellipse cx="6.20301" cy="6.20301" rx="6.20301" ry="6.20301" transform="matrix(-1 0 0 1 12.4062 216.541)" fill="#206095" fill-opacity="0.1"/>
<ellipse cx="6.20301" cy="6.20301" rx="6.20301" ry="6.20301" transform="matrix(-1 0 0 1 144.361 84.5869)" fill="white"/>
<ellipse cx="6.20301" cy="6.20301" rx="6.20301" ry="6.20301" transform="matrix(-1 0 0 1 144.361 84.5869)" fill="#206095" fill-opacity="0.1"/>
<ellipse cx="6.20301" cy="6.20301" rx="6.20301" ry="6.20301" transform="matrix(-1 0 0 1 144.361 148.872)" fill="white"/>
<ellipse cx="6.20301" cy="6.20301" rx="6.20301" ry="6.20301" transform="matrix(-1 0 0 1 144.361 148.872)" fill="#206095" fill-opacity="0.4"/>
<ellipse cx="6.20301" cy="6.20301" rx="6.20301" ry="6.20301" transform="matrix(-1 0 0 1 12.4062 84.5869)" fill="#003C57"/>
<ellipse cx="6.20301" cy="6.20301" rx="6.20301" ry="6.20301" transform="matrix(-1 0 0 1 472.557 84.5869)" fill="white"/>
<ellipse cx="6.20301" cy="6.20301" rx="6.20301" ry="6.20301" transform="matrix(-1 0 0 1 472.557 84.5869)" fill="#206095" fill-opacity="0.4"/>
<ellipse cx="6.20301" cy="6.20301" rx="6.20301" ry="6.20301" transform="matrix(-1 0 0 1 400.376 16.917)" fill="#003C57"/>
<circle cx="465.226" cy="23.1203" r="23.1203" fill="white"/>
<circle cx="465.226" cy="23.1203" r="23.1203" fill="#206095" fill-opacity="0.7"/>
<circle cx="402.068" cy="90.7892" r="23.1203" fill="#E2E2E3"/>
<circle cx="402.068" cy="155.075" r="23.1203" fill="white"/>
<circle cx="402.068" cy="155.075" r="23.1203" fill="#206095" fill-opacity="0.4"/>
<circle cx="402.068" cy="220.488" r="23.1203" fill="white"/>
<circle cx="402.068" cy="220.488" r="23.1203" fill="#206095" fill-opacity="0.7"/>
<circle cx="203.571" cy="220.488" r="23.1203" fill="white"/>
<circle cx="203.571" cy="220.488" r="23.1203" fill="#206095" fill-opacity="0.7"/>
<circle cx="16.3534" cy="16.3534" r="16.3534" transform="matrix(-1 0 0 1 482.707 204.136)" fill="white"/>
<circle cx="16.3534" cy="16.3534" r="16.3534" transform="matrix(-1 0 0 1 482.707 204.136)" fill="#003C57" fill-opacity="0.1"/>
<circle cx="16.3534" cy="16.3534" r="16.3534" transform="matrix(-1 0 0 1 87.9697 138.722)" fill="white"/>
<circle cx="16.3534" cy="16.3534" r="16.3534" transform="matrix(-1 0 0 1 87.9697 138.722)" fill="#206095" fill-opacity="0.7"/>
<circle cx="16.3534" cy="16.3534" r="16.3534" transform="matrix(-1 0 0 1 350.752 6.7666)" fill="#E2E2E3"/>
<circle cx="10.7143" cy="10.7143" r="10.7143" transform="matrix(-1 0 0 1 345.112 209.774)" fill="#E2E2E3"/>
<circle cx="10.7143" cy="10.7143" r="10.7143" transform="matrix(-1 0 0 1 345.112 144.361)" fill="#003C57"/>
<circle cx="10.7143" cy="10.7143" r="10.7143" transform="matrix(-1 0 0 1 345.112 276.315)" fill="#F5F5F6"/>
<circle cx="10.7143" cy="10.7143" r="10.7143" transform="matrix(-1 0 0 1 279.699 209.774)" fill="white"/>
<circle cx="10.7143" cy="10.7143" r="10.7143" transform="matrix(-1 0 0 1 279.699 209.774)" fill="#206095" fill-opacity="0.4"/>
<circle cx="10.7143" cy="10.7143" r="10.7143" transform="matrix(-1 0 0 1 214.286 144.361)" fill="#F5F5F6"/>
<circle cx="10.7143" cy="10.7143" r="10.7143" transform="matrix(-1 0 0 1 214.286 80.0752)" fill="white"/>
<circle cx="10.7143" cy="10.7143" r="10.7143" transform="matrix(-1 0 0 1 214.286 80.0752)" fill="#206095" fill-opacity="0.4"/>
<circle cx="10.7143" cy="10.7143" r="10.7143" transform="matrix(-1 0 0 1 82.3311 12.4062)" fill="white"/>
<circle cx="10.7143" cy="10.7143" r="10.7143" transform="matrix(-1 0 0 1 82.3311 12.4062)" fill="#003C57" fill-opacity="0.1"/>
<path fill-rule="evenodd" clip-rule="evenodd" d="M223.124 301C226.071 297.119 227.82 292.279 227.82 287.03C227.82 274.261 217.468 263.91 204.699 263.91C191.93 263.91 181.579 274.261 181.579 287.03C181.579 292.279 183.328 297.119 186.275 301H223.124Z" fill="#003C57"/>
<path fill-rule="evenodd" clip-rule="evenodd" d="M457.846 301C453.141 298.129 449.999 292.946 449.999 287.03C449.999 277.998 457.321 270.677 466.352 270.677C475.384 270.677 482.706 277.998 482.706 287.03C482.706 292.946 479.564 298.129 474.858 301H457.846Z" fill="white"/>
<path fill-rule="evenodd" clip-rule="evenodd" d="M457.846 301C453.141 298.129 449.999 292.946 449.999 287.03C449.999 277.998 457.321 270.677 466.352 270.677C475.384 270.677 482.706 277.998 482.706 287.03C482.706 292.946 479.564 298.129 474.858 301H457.846Z" fill="#206095" fill-opacity="0.7"/>
<path fill-rule="evenodd" clip-rule="evenodd" d="M287.41 301C290.357 297.119 292.106 292.279 292.106 287.03C292.106 274.261 281.755 263.91 268.986 263.91C256.217 263.91 245.865 274.261 245.865 287.03C245.865 292.279 247.614 297.119 250.561 301H287.41Z" fill="white"/>
<path fill-rule="evenodd" clip-rule="evenodd" d="M287.41 301C290.357 297.119 292.106 292.279 292.106 287.03C292.106 274.261 281.755 263.91 268.986 263.91C256.217 263.91 245.865 274.261 245.865 287.03C245.865 292.279 247.614 297.119 250.561 301H287.41Z" fill="#206095" fill-opacity="0.4"/>
</svg>
